<svg xmlns="http://www.w3.org/2000/svg" viewBox="0 0 1920 1080" role="img" aria-label="Outdoor mountain landscape">
  <defs>
    <linearGradient id="sky" x1="0" x2="0" y1="0" y2="1">
      <stop offset="0" stop-color="#d8ecff"/>
      <stop offset="0.45" stop-color="#f3f7ee"/>
      <stop offset="1" stop-color="#c9d7bf"/>
    </linearGradient>
    <linearGradient id="far" x1="0" x2="0" y1="0" y2="1">
      <stop offset="0" stop-color="#8aa498"/>
      <stop offset="1" stop-color="#426858"/>
    </linearGradient>
    <linearGradient id="near" x1="0" x2="0" y1="0" y2="1">
      <stop offset="0" stop-color="#3f6f57"/>
      <stop offset="1" stop-color="#183a2e"/>
    </linearGradient>
    <linearGradient id="ground" x1="0" x2="1" y1="0" y2="1">
      <stop offset="0" stop-color="#244934"/>
      <stop offset="0.55" stop-color="#6c8b52"/>
      <stop offset="1" stop-color="#d7b66f"/>
    </linearGradient>
    <filter id="soft" x="-10%" y="-10%" width="120%" height="120%">
      <feGaussianBlur stdDeviation="18"/>
    </filter>
  </defs>
  <rect width="1920" height="1080" fill="url(#sky)"/>
  <circle cx="1460" cy="220" r="120" fill="#fff5c6" opacity=".8" filter="url(#soft)"/>
  <path fill="#eef5ef" opacity=".45" d="M0 312c180-58 313-72 494-42 213 36 315 9 480-34 211-54 379-51 593 6 142 38 245 35 353 5v188H0z"/>
  <path fill="url(#far)" d="M0 590l175-151 133 87 212-234 219 242 153-151 203 201 163-128 195 154 119-96 348 249v317H0z"/>
  <path fill="#f3f8f3" opacity=".9" d="M520 292l91 101-62-24-52 60-62-39zM1089 384l69 68-48-16-39 45-44-29zM1453 456l62 49-43-10-31 34-36-22z"/>
  <path fill="url(#near)" d="M0 744l170-137 176 96 177-182 160 171 113-93 188 159 137-96 199 145 140-102 460 245v130H0z"/>
  <path fill="url(#ground)" d="M0 814c292-60 494-42 733 6 198 40 388 34 564-18 226-67 402-62 623 26v252H0z"/>
  <path fill="#183a2e" opacity=".35" d="M0 920c178-40 385-30 610 31 206 57 379 62 569 18 301-70 517-52 741 29v82H0z"/>
</svg>
